<svg id="eakeceot37kt1" xmlns="http://www.w3.org/2000/svg" xmlns:xlink="http://www.w3.org/1999/xlink" viewBox="0 0 640 180" shape-rendering="geometricPrecision" text-rendering="geometricPrecision"><style><![CDATA[#eakeceot37kt49_to {animation: eakeceot37kt49_to__to 3000ms linear infinite normal forwards}@keyframes eakeceot37kt49_to__to { 0% {transform: translate(332.185962px,297.141557px)} 20% {transform: translate(107.215000px,301.513581px)} 40% {transform: translate(340.630005px,301.513581px)} 46.666667% {transform: translate(340.630005px,301.513581px);animation-timing-function: cubic-bezier(0.420000,0,0.580000,1)} 66.666667% {transform: translate(560.630005px,301.513581px)} 86.666667% {transform: translate(332.185962px,298.769533px)} 100% {transform: translate(332.185962px,300.141557px)} }]]></style><defs><path id="eakeceot37kt2" d="M20.020000,219.890000L194.410000,219.890000L194.410000,339.280000L20.020000,339.280000L20.020000,219.890000Z"/><path id="eakeceot37kt3" d="M120.630000,193.060000L15.550000,193.060000"/><path id="eakeceot37kt4" d="M200,193.060000L137.780000,193.060000"/><path id="eakeceot37kt5" d="M240.020000,219.890000L414.410000,219.890000L414.410000,339.280000L240.020000,339.280000L240.020000,219.890000Z"/><path id="eakeceot37kt6" d="M340.630000,193.060000L235.550000,193.060000"/><path id="eakeceot37kt7" d="M420,193.060000L357.780000,193.060000"/><path id="eakeceot37kt8" d="M460.020000,219.890000L634.410000,219.890000L634.410000,339.280000L460.020000,339.280000L460.020000,219.890000Z"/><path id="eakeceot37kt9" d="M560.630000,193.060000L455.550000,193.060000"/><path id="eakeceot37kt10" d="M640,193.060000L577.780000,193.060000"/><path id="eakeceot37kt11" d="M330.960000,572.950000C330.960000,558.240000,339.110000,543.530000,339.110000,528.820000C339.110000,515.170000,339.110000,506.090000,339.110000,492.440000C339.110000,474.150000,319.430000,469.750000,313.560000,475.870000C309.660000,466.660000,296.460000,463.830000,290.070000,468.800000C285.300000,459.120000,270.230000,458,266.660000,464.450000C266.580000,460.430000,265.880000,428.270000,265.790000,424.240000C265.640000,417.240000,260.290000,411.500000,253.570000,411.500000C246.850000,411.500000,241.350000,417.230000,241.350000,424.240000C241.350000,433.200000,241.350000,504.830000,241.350000,513.790000C227,506.460000,230.430000,495.790000,214.910000,492.440000C205.030000,490.310000,196.150000,498.910000,199.700000,504.270000C202.210000,508.070000,207.270000,512.580000,212.080000,525.780000C221.710000,552.210000,245.420000,546.490000,245.420000,572.950000C262.530000,572.950000,322.410000,572.950000,330.960000,572.950000Z"/><path id="eakeceot37kt12" d="M330.960000,572.950000L245.430000,572.950000L241.200000,572.950000L241.200000,602.690000L335.190000,602.690000L335.190000,572.950000L330.960000,572.950000Z"/><path id="eakeceot37kt13" d="M343.360000,492.970000C343.360000,482.720000,337.950000,474.420000,328.880000,470.770000C324,468.800000,318.950000,468.620000,314.990000,470.060000C313.190000,467.770000,310.810000,465.850000,307.950000,464.450000C302.500000,461.780000,296.350000,461.420000,291.430000,463.260000C288.870000,460.230000,285.280000,457.980000,280.960000,456.860000C277.350000,455.930000,273.800000,455.930000,270.750000,456.740000C270.680000,453.480000,270.110000,427.410000,270.040000,424.150000C269.830000,414.670000,262.600000,407.250000,253.570000,407.250000C244.490000,407.250000,237.100000,414.870000,237.100000,424.240000C237.100000,432.380000,237.100000,497.470000,237.100000,505.600000C235.390000,503.900000,234.120000,502.110000,232.810000,500.260000C229.560000,495.660000,225.880000,490.460000,215.810000,488.290000C207.280000,486.450000,199.930000,490.680000,196.720000,495.380000C194.180000,499.110000,193.960000,503.300000,196.150000,506.620000C196.800000,507.590000,197.560000,508.560000,198.360000,509.590000C200.980000,512.960000,204.570000,517.580000,208.090000,527.240000C212.990000,540.680000,221.450000,546.750000,228.250000,551.630000C234.800000,556.330000,239.760000,559.890000,240.920000,568.720000C238.700000,568.860000,236.950000,570.700000,236.950000,572.950000C236.950000,575.930000,236.950000,599.720000,236.950000,602.690000C236.950000,605.040000,238.850000,606.940000,241.200000,606.940000C250.600000,606.940000,325.790000,606.940000,335.190000,606.940000C337.540000,606.940000,339.440000,605.040000,339.440000,602.690000C339.440000,599.720000,339.440000,575.930000,339.440000,572.950000C339.440000,570.690000,337.670000,568.850000,335.450000,568.720000C336.010000,563.300000,337.530000,557.790000,339.130000,552.020000C341.210000,544.510000,343.360000,536.750000,343.360000,528.820000C343.360000,521.650000,343.360000,496.550000,343.360000,492.970000ZM245.450000,598.440000L245.450000,577.200000C259.620000,577.200000,267.500000,577.200000,269.070000,577.200000C271.420000,577.200000,273.320000,575.300000,273.320000,572.950000C273.320000,570.600000,271.420000,568.700000,269.070000,568.700000C267.110000,568.700000,251.430000,568.700000,249.470000,568.700000C248.140000,555.440000,240.560000,550,233.200000,544.720000C226.740000,540.090000,220.070000,535.310000,216.070000,524.330000C212.100000,513.420000,207.860000,507.980000,205.060000,504.380000C204.340000,503.440000,203.710000,502.630000,203.240000,501.930000C202.900000,501.420000,203.650000,500.300000,203.730000,500.180000C205.410000,497.720000,209.580000,495.640000,214.020000,496.590000C220.860000,498.070000,222.850000,500.890000,225.870000,505.160000C228.290000,508.570000,231.220000,512.720000,237.100000,516.280000C237.100000,516.460000,237.100000,517.860000,237.100000,518.030000C237.100000,520.380000,239,522.280000,241.350000,522.280000C243.700000,522.280000,245.600000,520.380000,245.600000,518.030000C245.600000,508.660000,245.600000,433.620000,245.600000,424.240000C245.600000,419.560000,249.180000,415.750000,253.570000,415.750000C257.860000,415.750000,261.440000,419.600000,261.540000,424.340000C261.670000,429.960000,262.640000,474.910000,262.770000,480.530000C262.820000,482.870000,264.770000,484.710000,267.110000,484.680000C269.450000,484.630000,271.310000,482.690000,271.260000,480.340000C271.230000,478.890000,270.980000,467.310000,270.950000,465.860000C272.320000,464.750000,275.430000,464.210000,278.840000,465.090000C280.820000,465.600000,287.280000,467.860000,287.280000,475.360000C287.280000,477.710000,289.180000,479.610000,291.530000,479.610000C293.880000,479.610000,295.780000,477.710000,295.780000,475.360000C295.780000,473.840000,295.610000,472.360000,295.280000,470.950000C297.910000,470.290000,301.310000,470.660000,304.210000,472.080000C306.530000,473.210000,310.420000,475.950000,310.420000,481.490000C310.420000,483.840000,312.320000,485.740000,314.670000,485.740000C317.020000,485.740000,318.920000,483.840000,318.920000,481.490000C318.920000,480.250000,318.800000,479.030000,318.570000,477.840000C320.380000,477.420000,323.010000,477.560000,325.710000,478.650000C328.460000,479.760000,334.860000,483.380000,334.860000,492.970000C334.860000,496.550000,334.860000,525.230000,334.860000,528.820000C334.860000,535.590000,332.960000,542.470000,330.940000,549.750000C329.230000,555.910000,327.480000,562.240000,326.910000,568.700000C324.950000,568.700000,309.270000,568.700000,307.310000,568.700000C304.960000,568.700000,303.060000,570.600000,303.060000,572.950000C303.060000,575.300000,304.960000,577.200000,307.310000,577.200000C308.890000,577.200000,316.760000,577.200000,330.940000,577.200000L330.940000,598.440000L245.450000,598.440000Z"/><path id="eakeceot37kt14" d="M187.910000,413.170000C209.930000,413.170000,222.160000,413.170000,224.610000,413.170000C226.960000,413.170000,228.860000,411.260000,228.860000,408.920000C228.860000,406.570000,226.960000,404.670000,224.610000,404.670000C222.160000,404.670000,209.930000,404.670000,187.910000,404.670000C192.720000,399.860000,195.390000,397.190000,195.930000,396.660000C197.590000,395,197.590000,392.310000,195.930000,390.650000C194.270000,388.990000,191.580000,388.990000,189.920000,390.650000C188.390000,392.170000,176.180000,404.390000,174.650000,405.910000C173.850000,406.710000,173.410000,407.790000,173.410000,408.920000C173.410000,410.040000,173.850000,411.130000,174.650000,411.920000C176.180000,413.450000,188.390000,425.660000,189.920000,427.190000C190.750000,428.020000,191.830000,428.430000,192.920000,428.430000C194.010000,428.430000,195.100000,428.020000,195.930000,427.190000C197.590000,425.530000,197.590000,422.840000,195.930000,421.180000C194.860000,420.110000,192.190000,417.440000,187.910000,413.170000Z"/><path id="eakeceot37kt15" d="M288.190000,568.700000C285.840000,568.700000,283.940000,570.600000,283.940000,572.950000C283.940000,575.300000,285.850000,577.200000,288.190000,577.200000C290.540000,577.200000,292.440000,575.300000,292.440000,572.950000C292.440000,570.600000,290.540000,568.700000,288.190000,568.700000C288.190000,568.700000,288.190000,568.700000,288.190000,568.700000Z"/><path id="eakeceot37kt16" d="M352.330000,411.500000C330.310000,411.500000,318.080000,411.500000,315.630000,411.500000C313.290000,411.500000,311.380000,409.600000,311.380000,407.250000C311.380000,404.900000,313.290000,403,315.630000,403C318.080000,403,330.310000,403,352.330000,403C347.520000,398.190000,344.850000,395.520000,344.310000,394.990000C342.660000,393.330000,342.660000,390.640000,344.310000,388.980000C345.970000,387.320000,348.660000,387.320000,350.320000,388.980000C351.850000,390.510000,364.060000,402.720000,365.590000,404.240000C366.390000,405.040000,366.830000,406.120000,366.830000,407.250000C366.830000,408.380000,366.390000,409.460000,365.590000,410.250000C364.060000,411.780000,351.850000,423.990000,350.320000,425.520000C349.490000,426.350000,348.410000,426.760000,347.320000,426.760000C346.230000,426.760000,345.140000,426.350000,344.310000,425.520000C342.660000,423.860000,342.660000,421.170000,344.310000,419.510000C345.380000,418.440000,348.050000,415.770000,352.330000,411.500000Z"/></defs><g id="eakeceot37kt17" transform="matrix(1 0 0 1 0 -3)"><g id="eakeceot37kt18"><g id="eakeceot37kt19"><g id="eakeceot37kt20"><g id="eakeceot37kt21"><use id="eakeceot37kt22" width="174.389999" height="119.389999" xlink:href="#eakeceot37kt2" transform="matrix(1 0 0 1 -8.31014700000003 -182.82322399999998)" fill="rgb(0,0,0)" fill-opacity="0" stroke="rgb(0,0,0)" stroke-width="9"/></g></g><g id="eakeceot37kt23"><g id="eakeceot37kt24"><use id="eakeceot37kt25" width="105.079994" height="0" xlink:href="#eakeceot37kt3" transform="matrix(1 0 0 1 -8.31014700000003 -182.82322399999998)" fill="rgb(0,0,0)" fill-opacity="0" stroke="rgb(11,11,11)" stroke-width="9"/></g></g><g id="eakeceot37kt26"><g id="eakeceot37kt27"><use id="eakeceot37kt28" width="62.220001" height="0" xlink:href="#eakeceot37kt4" transform="matrix(1 0 0 1 -8.31014700000003 -182.82322399999998)" fill="rgb(0,0,0)" fill-opacity="0" stroke="rgb(11,11,11)" stroke-width="9"/></g></g></g><g id="eakeceot37kt29"><g id="eakeceot37kt30"><g id="eakeceot37kt31"><use id="eakeceot37kt32" width="174.389999" height="119.389999" xlink:href="#eakeceot37kt5" transform="matrix(1 0 0 1 -8.31014700000003 -182.82322399999998)" fill="rgb(0,0,0)" fill-opacity="0" stroke="rgb(0,0,0)" stroke-width="9"/></g></g><g id="eakeceot37kt33"><g id="eakeceot37kt34"><use id="eakeceot37kt35" width="105.080002" height="0" xlink:href="#eakeceot37kt6" transform="matrix(1 0 0 1 -8.31014700000003 -182.82322399999998)" fill="rgb(0,0,0)" fill-opacity="0" stroke="rgb(11,11,11)" stroke-width="9"/></g></g><g id="eakeceot37kt36"><g id="eakeceot37kt37"><use id="eakeceot37kt38" width="62.220001" height="0" xlink:href="#eakeceot37kt7" transform="matrix(1 0 0 1 -8.31014700000003 -182.82322399999998)" fill="rgb(0,0,0)" fill-opacity="0" stroke="rgb(11,11,11)" stroke-width="9"/></g></g></g><g id="eakeceot37kt39"><g id="eakeceot37kt40"><g id="eakeceot37kt41"><use id="eakeceot37kt42" width="174.389984" height="119.389999" xlink:href="#eakeceot37kt8" transform="matrix(1 0 0 1 -8.31014700000003 -182.82322399999998)" fill="rgb(0,0,0)" fill-opacity="0" stroke="rgb(0,0,0)" stroke-width="9"/></g></g><g id="eakeceot37kt43"><g id="eakeceot37kt44"><use id="eakeceot37kt45" width="105.080017" height="0" xlink:href="#eakeceot37kt9" transform="matrix(1 0 0 1 -8.31014700000003 -182.82322399999998)" fill="rgb(0,0,0)" fill-opacity="0" stroke="rgb(11,11,11)" stroke-width="9"/></g></g><g id="eakeceot37kt46"><g id="eakeceot37kt47"><use id="eakeceot37kt48" width="62.219971" height="0" xlink:href="#eakeceot37kt10" transform="matrix(1 0 0 1 -8.31014700000003 -182.82322399999998)" fill="rgb(0,0,0)" fill-opacity="0" stroke="rgb(11,11,11)" stroke-width="9"/></g></g></g></g></g><g id="eakeceot37kt49_to" transform="translate(332.185962,297.141557)"><g id="eakeceot37kt49" transform="scale(0.586331,0.586331) translate(-357.780014,-497.713074)"><g id="eakeceot37kt50" transform="matrix(1 0 0 1 -88.09002685999997 19.20834200000002)"><g id="eakeceot37kt51"><g id="eakeceot37kt52"><g id="eakeceot37kt53"><g id="eakeceot37kt54"><g id="eakeceot37kt55"><g id="eakeceot37kt56"><g id="eakeceot37kt57"><g id="eakeceot37kt58"><g id="eakeceot37kt59"><g id="eakeceot37kt60"><g id="eakeceot37kt61"><g id="eakeceot37kt62" transform="matrix(1 0 0 1 61.07002258500006 -1.37202500000001)"><g id="eakeceot37kt63"><use id="eakeceot37kt64" width="140.207474" height="161.450012" xlink:href="#eakeceot37kt11" transform="matrix(1 0 0 1 100.50686282342815 -331.85223485476558)" fill="rgb(255,255,255)" stroke="none" stroke-width="1"/><use id="eakeceot37kt65" width="93.990005" height="29.739990" xlink:href="#eakeceot37kt12" transform="matrix(1 0 0 1 100.50686282342804 -329.26973058936017)" fill="rgb(0,165,230)" stroke="none" stroke-width="1"/><use id="eakeceot37kt66" width="93.990005" height="29.739990" xlink:href="#eakeceot37kt12" transform="matrix(1 0 0 1 100.50686282342804 -329.26973058936017)" fill="rgb(0,165,230)" stroke="none" stroke-width="1"/><use id="eakeceot37kt67" width="93.990005" height="29.739990" xlink:href="#eakeceot37kt12" transform="matrix(1 0 0 1 100.50686282342804 -329.26973058936017)" fill="rgb(0,0,0)" fill-opacity="0" stroke="rgb(0,0,0)" stroke-width="1" stroke-opacity="0"/><use id="eakeceot37kt68" width="93.990005" height="29.739990" xlink:href="#eakeceot37kt12" transform="matrix(1 0 0 1 100.50686282342804 -329.26973058936017)" fill="rgb(0,0,0)" fill-opacity="0" stroke="rgb(0,0,0)" stroke-width="1" stroke-opacity="0"/><use id="eakeceot37kt69" width="148.711105" height="199.690002" xlink:href="#eakeceot37kt13" transform="matrix(1 0 0 1 100.50686282342815 -329.26973058936005)" fill="rgb(0,0,0)" stroke="none" stroke-width="1"/><use id="eakeceot37kt70" width="148.711105" height="199.690002" xlink:href="#eakeceot37kt13" transform="matrix(1 0 0 1 100.50686282342815 -329.26973058936005)" fill="rgb(0,0,0)" fill-opacity="0" stroke="rgb(0,0,0)" stroke-width="1" stroke-opacity="0"/><use id="eakeceot37kt71" width="55.449997" height="39.024994" xlink:href="#eakeceot37kt14" transform="matrix(1 0 0 1 100.50686282342809 -329.26973058936005)" fill="rgb(0,165,230)" stroke="none" stroke-width="1"/><use id="eakeceot37kt72" width="55.449997" height="39.024994" xlink:href="#eakeceot37kt14" transform="matrix(1 0 0 1 100.50686282342809 -329.26973058936005)" fill="rgb(0,165,230)" stroke="none" stroke-width="1"/><use id="eakeceot37kt73" width="55.449997" height="39.024994" xlink:href="#eakeceot37kt14" transform="matrix(1 0 0 1 100.50686282342809 -329.26973058936005)" fill="rgb(0,0,0)" fill-opacity="0" stroke="rgb(0,0,0)" stroke-width="1" stroke-opacity="0"/><use id="eakeceot37kt74" width="55.449997" height="39.024994" xlink:href="#eakeceot37kt14" transform="matrix(1 0 0 1 100.50686282342809 -329.26973058936005)" fill="rgb(0,0,0)" fill-opacity="0" stroke="rgb(0,0,0)" stroke-width="1" stroke-opacity="0"/><use id="eakeceot37kt75" width="8.500000" height="8.500000" xlink:href="#eakeceot37kt15" transform="matrix(1 0 0 1 100.50686282342809 -329.26973058936005)" fill="rgb(0,0,0)" stroke="none" stroke-width="1"/><use id="eakeceot37kt76" width="8.500000" height="8.500000" xlink:href="#eakeceot37kt15" transform="matrix(1 0 0 1 100.50686282342809 -329.26973058936005)" fill="rgb(0,0,0)" stroke="none" stroke-width="1"/><use id="eakeceot37kt77" width="8.500000" height="8.500000" xlink:href="#eakeceot37kt15" transform="matrix(1 0 0 1 100.50686282342809 -329.26973058936005)" fill="rgb(0,0,0)" fill-opacity="0" stroke="rgb(0,0,0)" stroke-width="1" stroke-opacity="0"/><use id="eakeceot37kt78" width="8.500000" height="8.500000" xlink:href="#eakeceot37kt15" transform="matrix(1 0 0 1 100.50686282342809 -329.26973058936005)" fill="rgb(0,0,0)" fill-opacity="0" stroke="rgb(0,0,0)" stroke-width="1" stroke-opacity="0"/><use id="eakeceot37kt79" width="55.449982" height="39.024994" xlink:href="#eakeceot37kt16" transform="matrix(1 0 0 1 100.50686282342821 -329.26973058936005)" fill="rgb(0,165,230)" stroke="none" stroke-width="1"/><use id="eakeceot37kt80" width="55.449982" height="39.024994" xlink:href="#eakeceot37kt16" transform="matrix(1 0 0 1 100.50686282342821 -329.26973058936005)" fill="rgb(0,165,230)" stroke="none" stroke-width="1"/><use id="eakeceot37kt81" width="55.449982" height="39.024994" xlink:href="#eakeceot37kt16" transform="matrix(1 0 0 1 100.50686282342821 -329.26973058936005)" fill="rgb(0,0,0)" fill-opacity="0" stroke="rgb(0,0,0)" stroke-width="1" stroke-opacity="0"/><use id="eakeceot37kt82" width="55.449982" height="39.024994" xlink:href="#eakeceot37kt16" transform="matrix(1 0 0 1 100.50686282342821 -329.26973058936005)" fill="rgb(0,0,0)" fill-opacity="0" stroke="rgb(0,0,0)" stroke-width="1" stroke-opacity="0"/></g></g></g></g></g></g></g></g></g></g></g></g></g></g></g></g></svg>